<svg width="10" height="14" viewBox="0 0 10 14" fill="none" xmlns="http://www.w3.org/2000/svg">
<path d="M3.46875 5.84375C3.80208 6.15625 4.19792 6.3125 4.65625 6.3125C5.11458 6.3125 5.5 6.15625 5.8125 5.84375C6.14583 5.51042 6.3125 5.11458 6.3125 4.65625C6.3125 4.19792 6.14583 3.8125 5.8125 3.5C5.5 3.16667 5.11458 3 4.65625 3C4.19792 3 3.80208 3.16667 3.46875 3.5C3.15625 3.8125 3 4.19792 3 4.65625C3 5.11458 3.15625 5.51042 3.46875 5.84375ZM1.34375 1.375C2.26042 0.458333 3.36458 0 4.65625 0C5.94792 0 7.04167 0.458333 7.9375 1.375C8.85417 2.27083 9.3125 3.36458 9.3125 4.65625C9.3125 5.30208 9.14583 6.04167 8.8125 6.875C8.5 7.70833 8.11458 8.48958 7.65625 9.21875C7.19792 9.94792 6.73958 10.6354 6.28125 11.2812C5.84375 11.9062 5.46875 12.4062 5.15625 12.7812L4.65625 13.3125C4.53125 13.1667 4.36458 12.9792 4.15625 12.75C3.94792 12.5 3.57292 12.0208 3.03125 11.3125C2.48958 10.5833 2.01042 9.88542 1.59375 9.21875C1.19792 8.53125 0.833333 7.76042 0.5 6.90625C0.166667 6.05208 0 5.30208 0 4.65625C0 3.36458 0.447917 2.27083 1.34375 1.375Z" fill="#65665C"/>
</svg>
